<?xml version="1.0" encoding="utf-8" ?>
<svg xmlns="http://www.w3.org/2000/svg" xmlns:xlink="http://www.w3.org/1999/xlink" width="873" height="864">
	<clipPath id="cl_6">
		<rect width="872.32336" height="863.93445"/>
	</clipPath>
	<g clip-path="url(#cl_6)">
		<path fill="#D063A6" transform="translate(271 341)" d="M-270.5 130L-270.5 -130Q-270.5 -130.516 -270.475 -131.03Q-270.449 -131.545 -270.399 -132.058Q-270.348 -132.571 -270.273 -133.081Q-270.197 -133.591 -270.096 -134.097Q-269.996 -134.602 -269.871 -135.103Q-269.745 -135.603 -269.596 -136.096Q-269.446 -136.589 -269.272 -137.075Q-269.099 -137.56 -268.901 -138.036Q-268.704 -138.513 -268.484 -138.979Q-268.263 -139.445 -268.02 -139.899Q-267.777 -140.354 -267.512 -140.796Q-267.247 -141.238 -266.961 -141.667Q-266.674 -142.096 -266.367 -142.51Q-266.06 -142.924 -265.733 -143.322Q-265.406 -143.721 -265.06 -144.103Q-264.714 -144.485 -264.349 -144.849Q-263.985 -145.214 -263.603 -145.56Q-263.221 -145.906 -262.822 -146.233Q-262.424 -146.56 -262.01 -146.867Q-261.596 -147.174 -261.167 -147.461Q-260.738 -147.747 -260.296 -148.012Q-259.854 -148.277 -259.399 -148.52Q-258.945 -148.763 -258.479 -148.984Q-258.013 -149.204 -257.536 -149.401Q-257.06 -149.599 -256.575 -149.772Q-256.089 -149.946 -255.596 -150.096Q-255.103 -150.245 -254.603 -150.371Q-254.102 -150.496 -253.597 -150.596Q-253.091 -150.697 -252.581 -150.773Q-252.071 -150.848 -251.558 -150.899Q-251.045 -150.949 -250.53 -150.975Q-250.016 -151 -249.5 -151L249.5 -151Q250.016 -151 250.53 -150.975Q251.045 -150.949 251.558 -150.899Q252.071 -150.848 252.581 -150.773Q253.091 -150.697 253.597 -150.596Q254.102 -150.496 254.603 -150.371Q255.103 -150.245 255.596 -150.096Q256.089 -149.946 256.575 -149.772Q257.06 -149.599 257.536 -149.401Q258.013 -149.204 258.479 -148.984Q258.945 -148.763 259.399 -148.52Q259.854 -148.277 260.296 -148.012Q260.738 -147.747 261.167 -147.461Q261.596 -147.174 262.01 -146.867Q262.424 -146.56 262.822 -146.233Q263.221 -145.906 263.603 -145.56Q263.985 -145.214 264.349 -144.849Q264.714 -144.485 265.06 -144.103Q265.406 -143.721 265.733 -143.322Q266.06 -142.924 266.367 -142.51Q266.674 -142.096 266.961 -141.667Q267.247 -141.238 267.512 -140.796Q267.777 -140.354 268.02 -139.899Q268.263 -139.445 268.484 -138.979Q268.704 -138.513 268.901 -138.036Q269.099 -137.56 269.272 -137.075Q269.446 -136.589 269.596 -136.096Q269.745 -135.603 269.871 -135.103Q269.996 -134.602 270.096 -134.097Q270.197 -133.591 270.273 -133.081Q270.348 -132.571 270.399 -132.058Q270.449 -131.545 270.475 -131.03Q270.5 -130.516 270.5 -130L270.5 130Q270.5 130.516 270.475 131.03Q270.449 131.545 270.399 132.058Q270.348 132.571 270.273 133.081Q270.197 133.591 270.096 134.097Q269.996 134.602 269.871 135.103Q269.745 135.603 269.596 136.096Q269.446 136.589 269.272 137.075Q269.099 137.56 268.901 138.036Q268.704 138.513 268.484 138.979Q268.263 139.445 268.02 139.899Q267.777 140.354 267.512 140.796Q267.247 141.238 266.961 141.667Q266.674 142.096 266.367 142.51Q266.06 142.924 265.733 143.322Q265.406 143.721 265.06 144.103Q264.714 144.485 264.349 144.849Q263.985 145.214 263.603 145.56Q263.221 145.906 262.822 146.233Q262.424 146.56 262.01 146.867Q261.596 147.174 261.167 147.461Q260.738 147.747 260.296 148.012Q259.854 148.277 259.399 148.52Q258.945 148.763 258.479 148.984Q258.013 149.204 257.536 149.401Q257.06 149.599 256.575 149.772Q256.089 149.946 255.596 150.096Q255.103 150.245 254.603 150.371Q254.102 150.496 253.597 150.596Q253.091 150.697 252.581 150.773Q252.071 150.848 251.558 150.899Q251.045 150.949 250.53 150.975Q250.016 151 249.5 151L-249.5 151Q-250.016 151 -250.53 150.975Q-251.045 150.949 -251.558 150.899Q-252.071 150.848 -252.581 150.773Q-253.091 150.697 -253.597 150.596Q-254.102 150.496 -254.603 150.371Q-255.103 150.245 -255.596 150.096Q-256.089 149.946 -256.575 149.772Q-257.06 149.599 -257.536 149.401Q-258.013 149.204 -258.479 148.984Q-258.945 148.763 -259.399 148.52Q-259.854 148.277 -260.296 148.012Q-260.738 147.747 -261.167 147.461Q-261.596 147.174 -262.01 146.867Q-262.424 146.56 -262.822 146.233Q-263.221 145.906 -263.603 145.56Q-263.985 145.214 -264.349 144.849Q-264.714 144.485 -265.06 144.103Q-265.406 143.721 -265.733 143.322Q-266.06 142.924 -266.367 142.51Q-266.674 142.096 -266.961 141.667Q-267.247 141.238 -267.512 140.796Q-267.777 140.354 -268.02 139.899Q-268.263 139.445 -268.484 138.979Q-268.704 138.513 -268.901 138.036Q-269.099 137.56 -269.272 137.075Q-269.446 136.589 -269.596 136.096Q-269.745 135.603 -269.871 135.103Q-269.996 134.602 -270.096 134.097Q-270.197 133.591 -270.273 133.081Q-270.348 132.571 -270.399 132.058Q-270.449 131.545 -270.475 131.03Q-270.5 130.516 -270.5 130Z"/>
		<path fill="#3B1C2F" transform="translate(-59 215)" d="M161.627 96.5457C161.627 90.3398 162.075 62.3857 162.298 58.3044C162.578 51.875 163.472 49.8064 177.002 47.9614C182.928 47.0669 183.823 45.9487 183.823 43.377L183.823 37.8979C183.823 36.053 183.823 34.0403 180.189 34.0403C175.604 34.0403 158.664 34.9348 152.458 34.9348C143.569 34.9348 126.126 34.0403 119.976 34.0403C117.46 34.0403 116.733 34.7112 116.733 37.6743L116.733 42.2588C116.733 45.4456 117.684 46.396 122.715 47.5142C128.418 48.6882 131.381 50.4773 131.884 53.2727C132.779 57.354 132.779 89.2217 132.779 96.322L132.779 133.613C132.779 146.248 132.779 163.635 132.331 173.252C132.108 178.507 130.934 180.576 122.715 182.421C117.907 183.539 116.733 183.986 116.733 187.676L116.733 192.26C116.733 194.553 117.236 195.895 119.752 195.895C122.268 195.895 125.678 195.224 155.198 195.224C177.002 195.224 182.257 195.671 187.289 195.895C201.714 196.398 219.101 197.069 220.946 197.069C224.356 197.069 226.872 196.845 227.599 192.037L231.009 159.946C231.233 157.43 231.233 156.312 227.599 156.312L222.064 156.312C220.051 156.312 218.43 156.759 217.536 161.567C216.585 167.27 213.846 173.475 210.435 176.215C206.298 179.681 203.782 179.681 180.189 179.681C168.057 179.681 163.025 178.954 162.298 170.512C161.627 162.685 161.627 129.979 161.627 120.586L161.627 96.5457ZM266.756 163.188C258.705 163.188 249.592 169.785 249.592 180.576C249.592 190.192 256.916 198.187 267.203 198.187C277.49 198.187 285.317 190.416 285.317 180.799C285.317 171.183 278.441 163.188 266.756 163.188Z"/>
		<path fill="#3B1C2F" transform="matrix(0.798636 -0.601815 0.601815 0.798636 191.435 347.753)" d="M241.839 112.484C242.151 110.414 241.995 109.281 239.768 109.281L235.12 109.281C233.831 109.281 233.675 109.438 232.386 111.352C227.425 118.07 226.643 118.07 212.737 118.07L189.69 118.07C188.401 118.07 186.175 118.07 186.175 117.289C186.175 116.625 190.315 112.484 191.136 111.664C228.401 74.7109 236.722 66.3906 236.722 49.9062C236.722 40.9609 233.05 33.9297 228.089 29.4375C220.393 22.875 209.378 21.7422 202.307 21.7422C194.964 21.7422 185.823 23.0312 177.503 27.2109C171.604 30.2578 171.761 32.4844 171.917 34.2422L172.737 46.0781C172.737 47.9922 172.893 48.6562 173.831 48.6562C173.987 48.6562 179.261 45.4531 180.393 44.7891C185.198 42.4062 191.917 39.9844 198.636 39.9844C212.542 39.9844 215.276 49.4375 215.276 55.5312C215.276 62.7188 211.917 70.0625 206.643 77.9141C198.948 89.2812 181.526 107.523 166.175 120.961C164.417 122.562 160.862 125.609 160.862 126.898C160.862 127.211 161.057 127.992 161.214 128.461L162.659 134.867C162.972 136 163.128 137.133 164.886 137.133C168.089 137.133 176.722 135.375 196.253 135.375C224.417 135.375 232.073 137.133 235.745 137.133C238.011 137.133 238.167 136.312 238.479 134.242L241.839 112.484Z"/>
		<path fill="#3B1C2F" transform="matrix(0.920505 -0.390731 0.390731 0.920505 60.859 305.362)" d="M241.839 112.484C242.151 110.414 241.995 109.281 239.768 109.281L235.12 109.281C233.831 109.281 233.675 109.438 232.386 111.352C227.425 118.07 226.643 118.07 212.737 118.07L189.69 118.07C188.401 118.07 186.175 118.07 186.175 117.289C186.175 116.625 190.315 112.484 191.136 111.664C228.401 74.7109 236.722 66.3906 236.722 49.9062C236.722 40.9609 233.05 33.9297 228.089 29.4375C220.393 22.875 209.378 21.7422 202.307 21.7422C194.964 21.7422 185.823 23.0312 177.503 27.2109C171.604 30.2578 171.761 32.4844 171.917 34.2422L172.737 46.0781C172.737 47.9922 172.893 48.6562 173.831 48.6562C173.987 48.6562 179.261 45.4531 180.393 44.7891C185.198 42.4062 191.917 39.9844 198.636 39.9844C212.542 39.9844 215.276 49.4375 215.276 55.5312C215.276 62.7188 211.917 70.0625 206.643 77.9141C198.948 89.2812 181.526 107.523 166.175 120.961C164.417 122.562 160.862 125.609 160.862 126.898C160.862 127.211 161.057 127.992 161.214 128.461L162.659 134.867C162.972 136 163.128 137.133 164.886 137.133C168.089 137.133 176.722 135.375 196.253 135.375C224.417 135.375 232.073 137.133 235.745 137.133C238.011 137.133 238.167 136.312 238.479 134.242L241.839 112.484Z"/>
		<ellipse fill="#D063A6" transform="matrix(0.981627 -0.190809 0.190809 0.981627 426 323)" cx="0" cy="0" rx="43.5" ry="44.5"/>
		<path fill="#3B1C2F" transform="matrix(-0.34202 -0.939693 0.939693 -0.34202 352.853 607.528)" d="M227.429 15.2188C227.116 14.8672 226.647 14.3984 225.983 14.3984C224.069 14.3984 215.28 21.7422 213.991 23.0312C203.601 32.6406 180.71 54.8672 180.71 92.3281C180.71 125.453 199.108 149.75 215.905 163.695C218.171 165.609 223.444 170.062 225.515 170.062C226.804 170.062 229.03 167.523 229.03 166.703C229.03 166.078 228.405 165.102 226.96 163.344C221.218 156.156 202.312 132.016 202.312 93.2656C202.312 55.0234 220.241 28.8125 226.96 21.2734C229.187 18.7344 229.343 18.5781 229.343 17.7578C229.343 17.2891 229.187 17.1328 227.429 15.2188Z"/>
		<path fill="#D063A6" transform="translate(8 493)" d="M75.4212 44.9973C75.4212 42.0977 75.6302 29.0361 75.7347 27.1292C75.8653 24.125 76.2833 23.1584 82.6051 22.2964C85.3741 21.8784 85.7921 21.356 85.7921 20.1543L85.7921 17.5942C85.7921 16.7322 85.7921 15.7917 84.0941 15.7917C81.952 15.7917 74.0367 16.2097 71.1371 16.2097C66.9835 16.2097 58.8331 15.7917 55.9596 15.7917C54.784 15.7917 54.4444 16.1052 54.4444 17.4897L54.4444 19.6318C54.4444 21.1208 54.8885 21.5649 57.2396 22.0874C59.9041 22.636 61.2887 23.4719 61.5238 24.7781C61.9417 26.6851 61.9417 41.5752 61.9417 44.8928L61.9417 62.3169C61.9417 68.2207 61.9417 76.345 61.7328 80.8381C61.6283 83.2937 61.0797 84.2603 57.2396 85.1223C54.993 85.6448 54.4444 85.8538 54.4444 87.5779L54.4444 89.72C54.4444 90.791 54.6795 91.418 55.8551 91.418C57.0306 91.418 58.6241 91.1045 72.4171 91.1045C82.6051 91.1045 85.0606 91.3135 87.4117 91.418C94.1515 91.6531 102.276 91.9666 103.138 91.9666C104.731 91.9666 105.907 91.8621 106.246 89.6155L107.84 74.6208C107.944 73.4453 107.944 72.9229 106.246 72.9229L103.66 72.9229C102.72 72.9229 101.962 73.1318 101.544 75.3784C101.1 78.043 99.8202 80.9426 98.2267 82.2227C96.2935 83.8423 95.118 83.8423 84.0941 83.8423C78.4254 83.8423 76.0743 83.5027 75.7347 79.5581C75.4212 75.9009 75.4212 60.6189 75.4212 56.2302L75.4212 44.9973ZM154.401 61.0369C157.17 61.0369 159.626 61.0369 159.626 56.9617C159.626 42.7507 150.744 37.6045 140.06 37.6045C121.982 37.6045 113.205 53.0171 113.205 66.4966C113.205 80.5247 122.609 92.489 139.615 92.489C149.464 92.489 156.857 88.5444 157.275 87.9958C158.032 87.0293 158.659 78.2781 158.659 78.043C158.659 77.834 158.659 77.207 158.346 77.207C157.928 77.207 154.924 79.2185 154.297 79.5581C150.326 81.7002 145.075 82.9802 141.34 82.9802C131.7 82.9802 125.065 75.3784 125.065 65.1121C125.065 61.0369 125.822 61.0369 129.558 61.0369L154.401 61.0369ZM139.511 43.8218C147.217 43.8218 147.531 51.946 147.531 52.4685C147.531 54.4016 146.904 54.5061 141.444 54.9502C135.88 55.3682 130.316 55.9167 129.036 55.9167C127.651 55.9167 127.416 55.2637 127.416 54.6106C127.416 53.3306 129.558 43.8218 139.511 43.8218ZM218.705 38.78C218.705 37.918 218.261 37.6045 217.085 37.6045C215.387 37.6045 213.35 37.918 208.439 37.918C204.05 37.918 201.803 37.6045 200.393 37.6045C198.59 37.6045 198.486 38.78 198.486 39.4331L198.486 41.3401C198.486 42.6462 198.799 42.8552 200.393 43.1687C202.979 43.7173 203.083 44.4487 203.083 45.1018C203.083 45.4153 203.083 45.6243 202.979 45.9639C202.43 47.7664 195.586 58.3723 195.064 58.3723C194.724 58.3723 190.988 52.5991 190.231 51.5281C189.369 50.3525 186.6 45.9639 186.6 44.8928C186.6 43.7173 186.913 43.7173 190.126 42.9597C191.511 42.6462 191.851 42.5417 191.851 40.9221L191.851 38.78C191.851 37.8135 190.988 37.6045 190.022 37.6045C186.391 37.6045 183.596 37.918 177.822 37.918C171.083 37.918 168.627 37.6045 166.799 37.6045C166.276 37.6045 165.101 37.6045 165.101 38.78L165.101 40.8176C165.101 41.3401 165.101 41.8887 165.518 42.2021C165.832 42.4111 167.765 43.0642 168.183 43.2732C169.359 43.9263 184.249 64.041 184.249 64.7725C184.249 65.321 183.7 65.9741 183.178 66.7056C182.734 67.1497 179.86 70.6763 179.416 71.1987C172.572 80.0806 168.418 85.6448 166.381 86.1934C164.447 86.6113 164.134 86.7158 164.134 87.9958L164.134 89.72C164.134 90.6865 164.238 91.3135 165.518 91.3135C166.903 91.3135 173.434 91 174.923 91C179.756 91 182.734 91.3135 183.805 91.3135C184.876 91.3135 185.32 91 185.32 89.72L185.32 87.9958C185.32 87.3689 185.215 87.0293 183.387 86.5068C180.931 85.9583 179.86 85.6448 179.86 84.1558C179.86 82.7712 186.495 73.5498 187.775 71.5383C188.193 70.8853 189.369 69.0566 189.708 69.0566C190.231 69.0566 191.302 70.7808 191.746 71.4077C197.833 81.8047 198.486 82.9802 198.486 84.0513C198.486 85.1223 198.042 85.8538 195.9 86.2979C193.758 86.7158 193.549 87.0293 193.549 87.9958L193.549 89.72C193.549 90.582 193.653 91.3135 194.933 91.3135C196.866 91.3135 205.957 91 207.995 91C212.697 91 217.294 91.3135 218.496 91.3135C219.332 91.3135 219.881 91.209 219.881 89.72L219.881 87.9958C219.881 87.6824 219.776 87.0293 219.436 86.8203C219.018 86.6113 217.19 85.7493 216.772 85.4358C214.63 83.8423 199.87 63.7275 199.87 62.761C199.87 62.1079 204.154 56.6482 209.614 49.6995C213.141 45.2063 214.316 44.2397 215.805 43.4822C218.365 42.2021 218.705 41.9932 218.705 40.8176L218.705 38.78ZM278.724 75.2739C278.933 73.8894 278.829 73.1318 277.34 73.1318L274.231 73.1318C273.369 73.1318 273.264 73.2363 272.402 74.5164C269.085 79.0095 268.562 79.0095 259.262 79.0095L243.85 79.0095C242.988 79.0095 241.499 79.0095 241.499 78.4871C241.499 78.043 244.268 75.2739 244.816 74.7253C269.738 50.0129 275.302 44.4487 275.302 33.4248C275.302 27.4426 272.846 22.7405 269.529 19.7363C264.383 15.3477 257.016 14.5901 252.288 14.5901C247.376 14.5901 241.264 15.4521 235.699 18.2473C231.755 20.2849 231.859 21.7739 231.964 22.9495L232.512 30.8647C232.512 32.1448 232.617 32.5889 233.244 32.5889C233.348 32.5889 236.875 30.4468 237.633 30.0027C240.846 28.4092 245.339 26.7896 249.832 26.7896C259.132 26.7896 260.96 33.1113 260.96 37.1865C260.96 41.9932 258.714 46.9043 255.187 52.155C250.041 59.7568 238.39 71.9563 228.124 80.9426C226.948 82.0137 224.571 84.0513 224.571 84.9133C224.571 85.1223 224.702 85.6448 224.806 85.9583L225.773 90.2424C225.982 91 226.086 91.7576 227.262 91.7576C229.404 91.7576 235.177 90.582 248.239 90.582C267.073 90.582 272.193 91.7576 274.649 91.7576C276.164 91.7576 276.269 91.209 276.478 89.8245L278.724 75.2739ZM288.355 16.3142C288.355 17.0718 288.564 17.8032 290.288 18.1428C294.337 18.6653 295.199 18.7698 295.747 20.5984C296.374 22.4009 296.374 40.6086 296.374 43.8218L296.374 67.1497C296.374 72.7139 296.27 79.5581 296.165 81.8047C295.956 84.2603 294.885 84.7827 292.09 85.6448C289.112 86.6113 288.773 86.7158 288.773 88.231L288.773 89.929C288.773 90.4775 288.773 91.3135 289.948 91.3135C291.672 91.3135 292.639 91 302.252 91C310.716 91 313.511 91.3135 314.896 91.3135C315.967 91.3135 316.176 90.8955 316.176 89.929L316.176 88.231C316.176 87.2644 316.176 86.7158 314.687 86.2979C310.089 84.9133 309.645 84.3647 309.227 83.6072C308.574 82.3271 308.574 69.7097 308.574 67.1497L308.574 43.8218C308.574 34.0779 308.887 23.054 308.887 14.5901L308.887 11.6121C308.887 11.2725 308.887 10.4365 308.051 10.4365L290.183 12.9966C289.217 13.1011 288.355 13.2056 288.355 14.4856L288.355 16.3142ZM327.942 67.1497C327.942 69.8142 327.942 77.9385 327.733 81.8047C327.524 84.1558 326.662 84.7827 323.658 85.6448C320.68 86.6113 320.34 86.7158 320.34 88.231L320.34 89.929C320.34 90.4775 320.34 91.3135 321.516 91.3135C323.135 91.3135 324.833 91 333.715 91C343.041 91 344.948 91.3135 346.463 91.3135C347.43 91.3135 347.743 91 347.743 89.929L347.743 88.231C347.743 87.2644 347.743 86.7158 346.254 86.2979C342.179 85.0178 341.003 84.4692 340.559 82.8757C340.141 81.1516 340.141 69.9187 340.141 67.1497L340.141 61.7944C340.141 55.2637 340.246 53.5396 340.35 43.7173L340.455 39.7466C340.455 38.989 340.455 37.6045 339.07 37.6045C337.477 37.6045 325.8 38.8845 322.273 39.3286C320.784 39.5376 320.445 39.7466 320.445 41.0266L320.445 42.8552C320.445 44.0308 321.098 44.4487 323.344 44.5532C327.733 44.8928 327.942 45.9639 327.942 58.4768L327.942 67.1497ZM332.644 14.3811C328.804 14.3811 324.52 16.9673 324.52 21.9829C324.52 26.3716 328.255 29.8982 332.879 29.8982C337.581 29.8982 341.317 26.3716 341.317 21.8784C341.317 16.6277 337.137 14.3811 332.644 14.3811ZM351.49 43.8218C351.49 44.6577 351.803 45.2063 354.598 45.3108C357.263 45.4153 358.543 46.0684 359.196 47.1394C360.372 49.0464 360.789 60.0703 360.789 63.4924L360.789 67.1497C360.789 71.0942 360.789 79.0095 360.581 81.8047C360.372 84.2603 359.405 84.7827 356.505 85.6448C353.527 86.6113 353.188 86.7158 353.188 88.231L353.188 89.929C353.188 90.4775 353.292 91.3135 354.363 91.3135C356.296 91.3135 357.785 91 367.007 91C374.478 91 377.064 91.3135 379.415 91.3135C380.382 91.3135 380.591 90.8955 380.591 89.929L380.591 88.231C380.591 87.4734 380.591 86.9248 379.729 86.5068C379.52 86.4023 375.889 85.2268 375.131 84.9133C373.198 84.0513 373.093 83.9468 373.093 67.1497L373.093 64.3545C373.093 59.5479 373.093 55.4727 375.549 52.364C377.378 50.1174 380.8 47.2439 386.364 47.2439C395.455 47.2439 395.455 54.2971 395.455 63.5969L395.455 67.1497C395.455 70.6763 395.455 78.696 395.246 81.8047C395.037 84.2603 394.175 84.7827 391.171 85.6448C388.193 86.6113 387.853 86.7158 387.853 88.231L387.853 89.929C387.853 90.4775 387.984 91.3135 389.055 91.3135C390.962 91.3135 392.242 91 401.777 91C410.449 91 412.147 91.3135 414.081 91.3135C415.047 91.3135 415.256 90.8955 415.256 89.929L415.256 88.231C415.256 87.4734 415.256 86.9248 414.394 86.5068C414.185 86.4023 410.554 85.2268 409.796 84.9133C407.863 84.0513 407.759 83.9468 407.759 67.1497L407.759 63.5969C407.759 51.1885 407.759 50.2219 407.341 47.6619C406.165 40.7131 398.877 37.6045 391.406 37.6045C382.628 37.6045 380.695 40.9221 375.236 46.3818C373.538 48.106 373.302 48.3149 372.884 48.3149C372.231 48.3149 372.022 47.1394 372.022 46.9043C372.022 46.6953 371.813 42.6462 371.604 40.5042C371.5 39.3286 371.395 37.6045 370.429 37.6045C368.287 37.6045 358.752 39.0935 353.188 39.6421C351.699 39.8511 351.49 40.1646 351.49 41.7842L351.49 43.8218ZM462.133 61.0369C464.902 61.0369 467.358 61.0369 467.358 56.9617C467.358 42.7507 458.476 37.6045 447.792 37.6045C429.715 37.6045 420.937 53.0171 420.937 66.4966C420.937 80.5247 430.342 92.489 447.348 92.489C457.196 92.489 464.589 88.5444 465.007 87.9958C465.764 87.0293 466.391 78.2781 466.391 78.043C466.391 77.834 466.391 77.207 466.078 77.207C465.66 77.207 462.656 79.2185 462.029 79.5581C458.058 81.7002 452.807 82.9802 449.072 82.9802C439.432 82.9802 432.797 75.3784 432.797 65.1121C432.797 61.0369 433.555 61.0369 437.29 61.0369L462.133 61.0369ZM447.243 43.8218C454.95 43.8218 455.263 51.946 455.263 52.4685C455.263 54.4016 454.636 54.5061 449.176 54.9502C443.612 55.3682 438.048 55.9167 436.768 55.9167C435.383 55.9167 435.148 55.2637 435.148 54.6106C435.148 53.3306 437.29 43.8218 447.243 43.8218Z"/>
	</g>
</svg>
