<?xml version="1.0" encoding="utf-8" ?>
<svg xmlns="http://www.w3.org/2000/svg" xmlns:xlink="http://www.w3.org/1999/xlink" width="85" height="48">
	<clipPath id="cl_3">
		<rect width="85" height="47.873032"/>
	</clipPath>
	<g clip-path="url(#cl_3)">
		<rect fill="#D0D0D0" width="85" height="48"/>
		<path fill="#030303" transform="translate(3 21.5)" d="M13.7104 2.2832C13.7221 2.15137 13.7338 2.08105 13.5287 1.96094C13.2885 1.8291 12.017 1.41895 10.5902 1.41895C7.57852 1.41895 5.63321 3.2793 5.63321 5.90723C5.63321 8.75195 7.85391 10.1787 10.3031 10.1787C11.0092 10.1787 12.1137 10.0732 13.3852 9.66309C14.0326 9.46094 14.0326 9.43457 14.0326 9.29102C14.0326 9.1709 13.9975 8.58496 13.9975 8.45312C13.9975 8.24805 14.0209 7.22852 14.0209 7.14355C14.0473 6.92676 14.1059 6.80664 14.5629 6.71289C14.8031 6.66309 14.8031 6.60449 14.8031 6.43457L14.8031 6.2207C14.8031 6.14746 14.7768 6.03906 14.6098 6.03906C14.4047 6.03906 13.974 6.08887 13.265 6.08887C13.0365 6.08887 12.017 6.03906 11.8266 6.03906C11.6713 6.03906 11.6449 6.07715 11.6449 6.2207L11.6449 6.49609C11.6449 6.61621 11.6449 6.6748 11.8852 6.73633C11.9086 6.74805 12.3188 6.84473 12.4008 6.96484C12.474 7.08496 12.474 7.91113 12.474 8.59668C12.474 8.84863 12.4506 8.93066 12.2104 9.02734C11.6713 9.23242 10.8773 9.36426 10.4467 9.36426C8.5629 9.36426 7.26505 7.60059 7.26505 5.69336C7.26505 3.68945 8.80313 2.20117 10.5902 2.20117C11.1059 2.20117 11.7768 2.33301 12.2221 2.52344C12.4506 2.63184 12.7611 2.81348 12.893 3.29102C12.9545 3.55469 13.0131 3.55469 13.1713 3.55469L13.3969 3.55469C13.602 3.55469 13.6137 3.54297 13.6254 3.34082L13.7104 2.2832ZM16.4696 7.3252C16.4696 7.62402 16.4696 8.53516 16.4462 8.96875C16.4227 9.23242 16.326 9.30273 15.9891 9.39941C15.6551 9.50781 15.6171 9.51953 15.6171 9.68945L15.6171 9.87988C15.6171 9.94141 15.6171 10.0352 15.7489 10.0352C15.9305 10.0352 16.121 10 17.1171 10C18.1629 10 18.3768 10.0352 18.5467 10.0352C18.6551 10.0352 18.6903 10 18.6903 9.87988L18.6903 9.68945C18.6903 9.58105 18.6903 9.51953 18.5233 9.47266C18.0663 9.3291 17.9344 9.26758 17.8846 9.08887C17.8378 8.89551 17.8378 7.63574 17.8378 7.3252L17.8378 6.72461C17.8378 5.99219 17.8495 5.79883 17.8612 4.69727L17.8729 4.25195C17.8729 4.16699 17.8729 4.01172 17.7176 4.01172C17.5389 4.01172 16.2294 4.15527 15.8338 4.20508C15.6669 4.22852 15.6288 4.25195 15.6288 4.39551L15.6288 4.60059C15.6288 4.73242 15.702 4.7793 15.954 4.79102C16.4462 4.8291 16.4696 4.94922 16.4696 6.35254L16.4696 7.3252ZM16.9969 1.40723C16.5663 1.40723 16.0858 1.69727 16.0858 2.25977C16.0858 2.75195 16.5047 3.14746 17.0233 3.14746C17.5506 3.14746 17.9696 2.75195 17.9696 2.24805C17.9696 1.65918 17.5008 1.40723 16.9969 1.40723ZM20.0333 7.36035L20.0099 8.7168C20.0099 9.56934 20.2501 10.167 21.882 10.167C22.6378 10.167 23.3087 9.96484 23.3703 9.8916C23.4288 9.80664 23.5021 9.10059 23.5021 9.10059C23.5021 9.00391 23.4406 9.00391 23.4171 9.00391C23.3937 9.00391 23.1886 9.06543 23.1417 9.06543C22.6994 9.18262 22.4826 9.19727 22.2892 9.19727C21.4132 9.19727 21.4132 8.70508 21.4132 7.36035L21.4132 5.51172C21.4132 5.3916 21.4132 5.18945 21.4367 5.09277C21.4747 4.99609 21.5949 4.99609 21.8087 4.99609C22.0021 4.99609 22.8781 5.05469 23.0451 5.05469C23.2501 5.05469 23.3234 4.99609 23.382 4.81738C23.4787 4.50391 23.5372 4.29883 23.5372 4.20508C23.5372 4.15527 23.5138 4.1084 23.4288 4.1084L23.2853 4.12012C23.1066 4.13184 22.8165 4.14355 22.7345 4.14355L21.7619 4.14355C21.5099 4.14355 21.3546 4.14355 21.3546 3.87988C21.3546 3.65137 21.3898 3.1709 21.4132 2.91895C21.4249 2.77539 21.5099 2.06934 21.5099 2.01953C21.5099 1.98438 21.4982 1.8291 21.3898 1.8291C21.3429 1.8291 21.3312 1.84082 21.1144 1.91113L20.3585 2.1748C20.1417 2.25977 20.0333 2.33301 20.0333 2.62012C20.0333 2.8252 20.0831 3.84473 20.0831 3.8916C20.0831 4.03516 20.0714 4.16699 19.7697 4.16699C19.7111 4.16699 19.4328 4.14355 19.3624 4.14355C19.2072 4.14355 19.2072 4.16699 19.0988 4.43066L18.9552 4.8291C18.9406 4.86426 18.9171 4.93457 18.9171 4.97266C18.9171 5.01953 18.9669 5.05469 19.0255 5.05469L19.2189 5.04297C19.2892 5.04297 19.6496 5.01953 19.7345 5.01953C20.0333 5.01953 20.0333 5.06934 20.0333 5.74023L20.0333 7.36035ZM26.2136 4.84082C26.2136 4.51562 26.237 3.05078 26.2488 2.83691C26.2634 2.5 26.3103 2.3916 27.0193 2.29492C27.3298 2.24805 27.3767 2.18945 27.3767 2.05469L27.3767 1.76758C27.3767 1.6709 27.3767 1.56543 27.1863 1.56543C26.946 1.56543 26.0583 1.6123 25.7331 1.6123C25.2673 1.6123 24.3533 1.56543 24.031 1.56543C23.8992 1.56543 23.8611 1.60059 23.8611 1.75586L23.8611 1.99609C23.8611 2.16309 23.9109 2.21289 24.1745 2.27148C24.4734 2.33301 24.6286 2.42676 24.655 2.57324C24.7019 2.78711 24.7019 4.45703 24.7019 4.8291L24.7019 6.7832C24.7019 7.44531 24.7019 8.35645 24.6785 8.86035C24.6667 9.13574 24.6052 9.24414 24.1745 9.34082C23.9226 9.39941 23.8611 9.42285 23.8611 9.61621L23.8611 9.85645C23.8611 9.97656 23.8874 10.0469 24.0193 10.0469C24.1511 10.0469 24.3298 10.0117 25.8767 10.0117C27.0193 10.0117 27.2947 10.0352 27.5583 10.0469C28.3142 10.0732 29.2253 10.1084 29.322 10.1084C29.5007 10.1084 29.6326 10.0967 29.6706 9.84473L29.8493 8.16309C29.8611 8.03125 29.8611 7.97266 29.6706 7.97266L29.3806 7.97266C29.2751 7.97266 29.1902 7.99609 29.1433 8.24805C29.0935 8.54688 28.9499 8.87207 28.7712 9.01562C28.5544 9.19727 28.4226 9.19727 27.1863 9.19727C26.5505 9.19727 26.2868 9.15918 26.2488 8.7168C26.2136 8.30664 26.2136 6.59277 26.2136 6.10059L26.2136 4.84082ZM30.8466 5.33301C30.8349 5.37988 30.8114 5.54688 30.9169 5.54688C30.9667 5.54688 31.3007 5.36816 31.3857 5.33301C31.5673 5.24805 32.1064 5.01953 32.7538 5.01953C33.8232 5.01953 33.87 5.64355 33.87 6.14746L33.87 6.34082C33.87 6.74805 33.6767 6.7832 33.1024 6.90332L31.5175 7.2168C30.8935 7.34863 30.8232 7.36035 30.703 7.62402C30.5097 8.06934 30.4862 8.45312 30.4862 8.63184C30.4862 9.44922 31.0136 10.167 31.8427 10.167C32.5751 10.167 32.9706 9.90332 33.3192 9.66309C33.4013 9.61621 33.8114 9.30273 33.8466 9.30273C33.8935 9.30273 33.9052 9.3291 33.9052 9.60449C33.9286 10.2637 34.0634 10.2637 34.2187 10.2637C34.2655 10.2637 34.3622 10.252 34.4589 10.2402L35.8739 10C36.1024 9.95312 36.1259 9.92676 36.1259 9.79492L36.1259 9.60449C36.1259 9.43457 36.079 9.43457 35.7069 9.3877C35.203 9.3291 35.1532 9.13574 35.1532 8.67871L35.1532 7.91113L35.1649 7.25195C35.1649 7.03516 35.1913 5.94531 35.1913 5.70508C35.1913 4.40723 34.3007 4.01172 32.9589 4.01172C32.2616 4.01172 31.4589 4.17871 31.3153 4.2168C31.0136 4.31055 30.955 4.41895 30.9169 4.70898L30.8466 5.33301ZM33.87 7.94922C33.87 8.32129 33.8583 8.59668 33.498 8.87207C33.079 9.20898 32.6952 9.20898 32.622 9.20898C32.3232 9.20898 31.9247 9.03906 31.9247 8.53516C31.9247 7.87598 32.6952 7.64746 32.8153 7.6123C33.161 7.50391 33.7499 7.39551 33.7733 7.39551C33.87 7.39551 33.87 7.49219 33.87 7.62402L33.87 7.94922ZM37.0395 5.35645C37.0395 5.90723 36.9897 8.63184 36.9897 9.24414C36.9897 9.41113 37.0131 9.53125 37.2182 9.65137C37.4584 9.79492 38.311 10.167 39.2338 10.167C41.0092 10.167 42.4389 8.95703 42.4389 6.7832C42.4389 5.91895 42.1254 4.01172 40.1713 4.01172C39.4155 4.01172 39.1635 4.29883 38.9233 4.53906C38.8149 4.64746 38.5248 4.96094 38.4311 4.96094C38.3813 4.96094 38.3813 4.89941 38.3813 4.86426L38.393 4.60059C38.4047 4.31055 38.393 2.93066 38.4194 2.6084C38.4311 2.40332 38.4662 1.40723 38.4662 1.17871C38.4662 1.09668 38.4545 0.964844 38.311 0.964844C38.2729 0.964844 38.1293 0.988281 38.0942 0.988281L36.3422 1.24023C36.2338 1.25195 36.1371 1.27539 36.1371 1.40723L36.1371 1.6123C36.1371 1.69727 36.1635 1.7793 36.3539 1.81738C36.7992 1.87598 36.9047 1.89941 36.9662 2.09277C37.0395 2.29492 37.0395 4.33691 37.0395 4.69727L37.0395 5.35645ZM39.7494 5.00781C40.3266 5.00781 41.0209 5.62012 41.0209 7.08496C41.0209 8.78711 40.0248 9.39941 39.4008 9.39941C38.9819 9.39941 38.6215 9.18262 38.5014 8.95703C38.393 8.75195 38.3696 8.48828 38.3696 7.51562C38.3696 6.96484 38.3813 6.29102 38.5981 5.8252C38.8149 5.35645 39.2338 5.00781 39.7494 5.00781Z"/>
		<path fill="#030303" transform="matrix(0.788011 -0.615662 0.615662 0.788011 37.0859 34.6538)" d="M26.8379 8.23633C26.8613 8.08105 26.8496 7.99609 26.6826 7.99609L26.334 7.99609C26.2373 7.99609 26.2256 8.00781 26.1289 8.15137C25.7568 8.65527 25.6982 8.65527 24.6553 8.65527L22.9268 8.65527C22.8301 8.65527 22.6631 8.65527 22.6631 8.59668C22.6631 8.54688 22.9736 8.23633 23.0351 8.1748C25.8301 5.40332 26.4541 4.7793 26.4541 3.54297C26.4541 2.87207 26.1787 2.34473 25.8066 2.00781C25.2295 1.51562 24.4033 1.43066 23.873 1.43066C23.3223 1.43066 22.6367 1.52734 22.0127 1.84082C21.5703 2.06934 21.582 2.23633 21.5937 2.36816L21.6553 3.25586C21.6553 3.39941 21.667 3.44922 21.7373 3.44922C21.749 3.44922 22.1445 3.20898 22.2295 3.15918C22.5898 2.98047 23.0937 2.79883 23.5976 2.79883C24.6406 2.79883 24.8457 3.50781 24.8457 3.96484C24.8457 4.50391 24.5937 5.05469 24.1982 5.64355C23.6211 6.49609 22.3144 7.86426 21.1631 8.87207C21.0312 8.99219 20.7646 9.2207 20.7646 9.31738C20.7646 9.34082 20.7793 9.39941 20.791 9.43457L20.8994 9.91504C20.9228 10 20.9346 10.085 21.0664 10.085C21.3066 10.085 21.9541 9.95312 23.4189 9.95312C25.5312 9.95312 26.1055 10.085 26.3809 10.085C26.5508 10.085 26.5625 10.0234 26.5859 9.86816L26.8379 8.23633Z"/>
		<path fill="#030303" transform="matrix(0.788011 -0.615662 0.615662 0.788011 46.0859 32.6538)" d="M26.8379 8.23633C26.8613 8.08105 26.8496 7.99609 26.6826 7.99609L26.334 7.99609C26.2373 7.99609 26.2256 8.00781 26.1289 8.15137C25.7568 8.65527 25.6982 8.65527 24.6553 8.65527L22.9268 8.65527C22.8301 8.65527 22.6631 8.65527 22.6631 8.59668C22.6631 8.54688 22.9736 8.23633 23.0351 8.1748C25.8301 5.40332 26.4541 4.7793 26.4541 3.54297C26.4541 2.87207 26.1787 2.34473 25.8066 2.00781C25.2295 1.51562 24.4033 1.43066 23.873 1.43066C23.3223 1.43066 22.6367 1.52734 22.0127 1.84082C21.5703 2.06934 21.582 2.23633 21.5937 2.36816L21.6553 3.25586C21.6553 3.39941 21.667 3.44922 21.7373 3.44922C21.749 3.44922 22.1445 3.20898 22.2295 3.15918C22.5898 2.98047 23.0937 2.79883 23.5976 2.79883C24.6406 2.79883 24.8457 3.50781 24.8457 3.96484C24.8457 4.50391 24.5937 5.05469 24.1982 5.64355C23.6211 6.49609 22.3144 7.86426 21.1631 8.87207C21.0312 8.99219 20.7646 9.2207 20.7646 9.31738C20.7646 9.34082 20.7793 9.39941 20.791 9.43457L20.8994 9.91504C20.9228 10 20.9346 10.085 21.0664 10.085C21.3066 10.085 21.9541 9.95312 23.4189 9.95312C25.5312 9.95312 26.1055 10.085 26.3809 10.085C26.5508 10.085 26.5625 10.0234 26.5859 9.86816L26.8379 8.23633Z"/>
		<ellipse fill="#E1E1E1" transform="translate(71 25)" cx="0" cy="0" rx="3.5" ry="3.5"/>
		<path fill="#030303" transform="matrix(-0.544639 -0.838671 0.838671 -0.544639 74.62 53.6682)" d="M25.7571 0.941406C25.7337 0.915039 25.6985 0.879883 25.6487 0.879883C25.5052 0.879883 24.846 1.43066 24.7493 1.52734C23.97 2.24805 22.2532 3.91504 22.2532 6.72461C22.2532 9.20898 23.6331 11.0312 24.8929 12.0771C25.0628 12.2207 25.4583 12.5547 25.6136 12.5547C25.7103 12.5547 25.8773 12.3643 25.8773 12.3027C25.8773 12.2559 25.8304 12.1826 25.722 12.0508C25.2913 11.5117 23.8733 9.70117 23.8733 6.79492C23.8733 3.92676 25.2181 1.96094 25.722 1.39551C25.889 1.20508 25.9007 1.19336 25.9007 1.13184C25.9007 1.09668 25.889 1.08496 25.7571 0.941406Z"/>
		<rect fill="#888" transform="translate(0.810685 24.8682)" x="-1" y="-32" width="2" height="64"/>
		<rect fill="#888" transform="translate(46 66)" x="-45.5" y="-23" width="91" height="46"/>
		<rect fill="#F4F4F4" transform="translate(43 0)" x="-54.5" y="-7" width="109" height="14"/>
	</g>
</svg>
