<?xml version="1.0" encoding="utf-8" ?>
<svg xmlns="http://www.w3.org/2000/svg" xmlns:xlink="http://www.w3.org/1999/xlink" width="640" height="480">
	<clipPath id="cl_7">
		<rect width="640" height="480"/>
	</clipPath>
	<g clip-path="url(#cl_7)">
		<path fill="#E3B6D2" transform="translate(320 240)" d="M-242.5 134.5L-242.5 -134.5Q-242.5 -135.236 -242.464 -135.972Q-242.428 -136.708 -242.356 -137.441Q-242.283 -138.173 -242.175 -138.902Q-242.067 -139.63 -241.924 -140.353Q-241.78 -141.075 -241.601 -141.789Q-241.422 -142.504 -241.208 -143.209Q-240.994 -143.913 -240.746 -144.607Q-240.498 -145.3 -240.216 -145.98Q-239.935 -146.661 -239.62 -147.327Q-239.305 -147.992 -238.958 -148.642Q-238.61 -149.291 -238.232 -149.923Q-237.853 -150.555 -237.444 -151.167Q-237.035 -151.779 -236.596 -152.371Q-236.157 -152.962 -235.69 -153.532Q-235.223 -154.101 -234.729 -154.647Q-234.234 -155.192 -233.713 -155.713Q-233.192 -156.234 -232.647 -156.729Q-232.101 -157.223 -231.532 -157.69Q-230.962 -158.158 -230.371 -158.596Q-229.779 -159.035 -229.167 -159.444Q-228.555 -159.853 -227.923 -160.232Q-227.291 -160.61 -226.642 -160.958Q-225.992 -161.305 -225.327 -161.62Q-224.661 -161.935 -223.98 -162.216Q-223.3 -162.498 -222.607 -162.746Q-221.913 -162.994 -221.209 -163.208Q-220.504 -163.422 -219.789 -163.601Q-219.075 -163.78 -218.353 -163.924Q-217.63 -164.067 -216.902 -164.175Q-216.173 -164.283 -215.441 -164.356Q-214.708 -164.428 -213.972 -164.464Q-213.236 -164.5 -212.5 -164.5L212.5 -164.5Q213.236 -164.5 213.972 -164.464Q214.708 -164.428 215.441 -164.356Q216.173 -164.283 216.902 -164.175Q217.63 -164.067 218.353 -163.924Q219.075 -163.78 219.789 -163.601Q220.504 -163.422 221.209 -163.208Q221.913 -162.994 222.607 -162.746Q223.3 -162.498 223.98 -162.216Q224.661 -161.935 225.327 -161.62Q225.992 -161.305 226.642 -160.958Q227.291 -160.61 227.923 -160.232Q228.555 -159.853 229.167 -159.444Q229.779 -159.035 230.371 -158.596Q230.962 -158.158 231.532 -157.69Q232.101 -157.223 232.647 -156.729Q233.192 -156.234 233.713 -155.713Q234.234 -155.192 234.729 -154.647Q235.223 -154.101 235.69 -153.532Q236.157 -152.962 236.596 -152.371Q237.035 -151.779 237.444 -151.167Q237.853 -150.555 238.232 -149.923Q238.61 -149.291 238.958 -148.642Q239.305 -147.992 239.62 -147.327Q239.935 -146.661 240.216 -145.98Q240.498 -145.3 240.746 -144.607Q240.994 -143.913 241.208 -143.209Q241.422 -142.504 241.601 -141.789Q241.78 -141.075 241.924 -140.353Q242.067 -139.63 242.175 -138.902Q242.283 -138.173 242.356 -137.441Q242.428 -136.708 242.464 -135.972Q242.5 -135.236 242.5 -134.5L242.5 134.5Q242.5 135.236 242.464 135.972Q242.428 136.708 242.356 137.441Q242.283 138.173 242.175 138.902Q242.067 139.63 241.924 140.353Q241.78 141.075 241.601 141.789Q241.422 142.504 241.208 143.209Q240.994 143.913 240.746 144.607Q240.498 145.3 240.216 145.98Q239.935 146.661 239.62 147.327Q239.305 147.992 238.958 148.642Q238.61 149.291 238.232 149.923Q237.853 150.555 237.444 151.167Q237.035 151.779 236.596 152.371Q236.157 152.962 235.69 153.532Q235.223 154.101 234.729 154.647Q234.234 155.192 233.713 155.713Q233.192 156.234 232.647 156.729Q232.101 157.223 231.532 157.69Q230.962 158.158 230.371 158.596Q229.779 159.035 229.167 159.444Q228.555 159.853 227.923 160.232Q227.291 160.61 226.642 160.958Q225.992 161.305 225.327 161.62Q224.661 161.935 223.98 162.216Q223.3 162.498 222.607 162.746Q221.913 162.994 221.209 163.208Q220.504 163.422 219.789 163.601Q219.075 163.78 218.353 163.924Q217.63 164.067 216.902 164.175Q216.173 164.283 215.441 164.356Q214.708 164.428 213.972 164.464Q213.236 164.5 212.5 164.5L-212.5 164.5Q-213.236 164.5 -213.972 164.464Q-214.708 164.428 -215.441 164.356Q-216.173 164.283 -216.902 164.175Q-217.63 164.067 -218.353 163.924Q-219.075 163.78 -219.789 163.601Q-220.504 163.422 -221.209 163.208Q-221.913 162.994 -222.607 162.746Q-223.3 162.498 -223.98 162.216Q-224.661 161.935 -225.327 161.62Q-225.992 161.305 -226.642 160.958Q-227.291 160.61 -227.923 160.232Q-228.555 159.853 -229.167 159.444Q-229.779 159.035 -230.371 158.596Q-230.962 158.158 -231.532 157.69Q-232.101 157.223 -232.647 156.729Q-233.192 156.234 -233.713 155.713Q-234.234 155.192 -234.729 154.647Q-235.223 154.101 -235.69 153.532Q-236.157 152.962 -236.596 152.371Q-237.035 151.779 -237.444 151.167Q-237.853 150.555 -238.232 149.923Q-238.61 149.291 -238.958 148.642Q-239.305 147.992 -239.62 147.327Q-239.935 146.661 -240.216 145.98Q-240.498 145.3 -240.746 144.607Q-240.994 143.913 -241.208 143.209Q-241.422 142.504 -241.601 141.789Q-241.78 141.075 -241.924 140.353Q-242.067 139.63 -242.175 138.902Q-242.283 138.173 -242.356 137.441Q-242.428 136.708 -242.464 135.972Q-242.5 135.236 -242.5 134.5Z"/>
		<text fill="#963972" transform="translate(99.5 174)" font-size="41" font-family="Roboto" x="0, 20.840332, 40.699707, 50.649414, 73.771973, 95.493164, 118.87598, 129.02588, 150.1665, 163.65967, 185.12061, 207.62256, 220.73535, 246.8208, 256.77051, 279.89307, 301.61426, 324.99707, 336.30811, 362.89404, 388.13867, 403.47363, " y="38, ">
				&lt;video src=&quot;Video-URL&quot;
		</text>
		<text fill="#963972" transform="translate(99.5 174)" font-size="41" font-family="Roboto" x="0, 21.460938, 44.84375, 67.46582, 80.858887, 94.332031, 117.71484, 127.66455, 148.80518, " y="86, ">
				controls&gt;
		</text>
	</g>
</svg>
